HIERARCHY
ROOT Hips
{
	OFFSET 0.00000 0.00000 0.00000
	CHANNELS 6 Xposition Yposition Zposition Zrotation Yrotation Xrotation 
	JOINT LHipJoint
	{
		OFFSET 0 0 0
		CHANNELS 3 Zrotation Yrotation Xrotation
		JOINT LeftHip
		{
			OFFSET 1.80322 -1.53100 0.99595
			CHANNELS 3 Zrotation Yrotation Xrotation
			JOINT LeftKnee
			{
				OFFSET 2.25177 -6.18669 0.00000
				CHANNELS 3 Zrotation Yrotation Xrotation
				JOINT LeftAnkle
				{
					OFFSET 2.26601 -6.22582 0.00000
					CHANNELS 3 Zrotation Yrotation Xrotation
					JOINT LeftToe
					{
						OFFSET 0.23701 -0.65119 2.15848
						CHANNELS 3 Zrotation Yrotation Xrotation
						End Site
						{
							OFFSET 0.00000 -0.00000 1.12949
						}
					}
				}
			}
		}
	}
	JOINT RHipJoint
	{
		OFFSET 0 0 0
		CHANNELS 3 Zrotation Yrotation Xrotation
		JOINT RightHip
		{
			OFFSET -1.93977 -1.53100 0.99595
			CHANNELS 3 Zrotation Yrotation Xrotation
			JOINT RightKnee
			{
				OFFSET -2.28036 -6.26523 0.00000
				CHANNELS 3 Zrotation Yrotation Xrotation
				JOINT RightAnkle
				{
					OFFSET -2.25490 -6.19528 0.00000
					CHANNELS 3 Zrotation Yrotation Xrotation
					JOINT RightToe
					{
						OFFSET -0.28375 -0.77960 2.23137
						CHANNELS 3 Zrotation Yrotation Xrotation
						End Site
						{
							OFFSET -0.00000 -0.00000 1.17899
						}
					}
				}
			}
		}
	}
	JOINT lowerback
	{
		OFFSET 0 0 0
		CHANNELS 3 Zrotation Yrotation Xrotation
		JOINT Chest
		{
			OFFSET -0.00088 2.12090 -0.02806
			CHANNELS 3 Zrotation Yrotation Xrotation
			JOINT Chest2
			{
				OFFSET -0.00286 2.09666 0.12974
				CHANNELS 3 Zrotation Yrotation Xrotation
				JOINT lowerneck
				{
					OFFSET 0 0 0
					CHANNELS 3 Zrotation Yrotation Xrotation
					JOINT Neck
					{
						OFFSET 0.07328 1.83526 0.07290
						CHANNELS 3 Zrotation Yrotation Xrotation
						JOINT Head
						{
							OFFSET -0.06683 1.74974 -0.49542
							CHANNELS 3 Zrotation Yrotation Xrotation
							End Site
							{
								OFFSET -0.03398 1.85163 -0.17573
							}
						}
					}
				}
				JOINT LeftCollar
				{
					OFFSET 0 0 0
					CHANNELS 3 Zrotation Yrotation Xrotation
					JOINT LeftShoulder
					{
						OFFSET 3.02113 1.18018 0.40602
CHANNELS 3 Zrotation Xrotation Yrotation
						JOINT LeftElbow
						{
OFFSET 0 -4.585380 -0.000000
CHANNELS 3 Zrotation Xrotation Yrotation
							JOINT LeftWrist
							{
OFFSET 0 -2.689350 -0.000000
CHANNELS 3 Zrotation Xrotation Yrotation
								JOINT lhand
								{
									OFFSET 0 0 0
CHANNELS 3 Zrotation Xrotation Yrotation
									JOINT LFingers
									{
OFFSET 0 -0.585060 -0.000000
CHANNELS 3 Zrotation Xrotation Yrotation
										End Site
										{
OFFSET 0 -0.471690 -0.000000
										}
									}
								}
								JOINT LThumb
								{
OFFSET 0 0.000000 0.000000
CHANNELS 3 Zrotation Xrotation Yrotation
									End Site
									{
OFFSET 0 -0.478890 0.478890
									}
								}
							}
						}
					}
				}
				JOINT RightCollar
				{
					OFFSET 0 0 0
					CHANNELS 3 Zrotation Yrotation Xrotation
					JOINT RightShoulder
					{
						OFFSET -2.95074 1.18843 0.31430
CHANNELS 3 Zrotation Xrotation Yrotation
						JOINT RightElbow
						{
OFFSET 0 -4.474500 -0.000000
CHANNELS 3 Zrotation Xrotation Yrotation
							JOINT RightWrist
							{
OFFSET 0 -2.938960 -0.000000
CHANNELS 3 Zrotation Xrotation Yrotation
								JOINT rhand
								{
									OFFSET 0 0 0
CHANNELS 3 Zrotation Xrotation Yrotation
									JOINT RFingers
									{
OFFSET 0 -0.405090 -0.000000
CHANNELS 3 Zrotation Xrotation Yrotation
										End Site
										{
OFFSET 0 -0.326600 -0.000000
										}
									}
								}
								JOINT RThumb
								{
OFFSET 0 0.000000 0.000000
CHANNELS 3 Zrotation Xrotation Yrotation
									End Site
									{
OFFSET 0 -0.331580 0.331580
									}
								}
							}
						}
					}
				}
			}
		}
	}
}
MOTION
Frames: 8
Frame Time: 0.008333333333333333
0.226356 15.500668 6.939438 1.921310 -3.491858 18.515274 0.000000 0.000000 0.000000 -20.643968 -18.509324 -28.316571 4.316861 12.570433 37.781220 1.041749 7.083997 -23.076408 0.015827 -0.813044 -2.234470 0.000000 0.000000 0.000000 16.825623 14.859457 -32.234163 -5.208613 -13.614872 41.716179 -1.660826 -2.816611 -25.496304 -0.007820 -0.570765 1.568500 -0.861459 -0.820549 -2.722584 -0.437100 -1.190906 -10.646116 0.085709 -0.547106 -9.714575 9.732277 3.522198 -8.335054 -3.550429 4.286464 41.513003 -2.662160 2.835639 16.760877 0.000000 0.000000 0.000000 130.976591 -33.764251 42.632886 29.610294 -40.556848 11.155464 34.261474 17.330557 -14.762434 0.000000 0.000000 0.000000 -7.125000 0.000000 0.000000 6.495107 47.557747 -0.411537 0.000000 0.000000 0.000000 -137.025892 -40.654795 -57.578626 -23.254848 -34.366176 -7.281709 -36.395288 22.344768 3.457342 0.000000 0.000000 0.000000 7.125000 0.000000 0.000000 -8.039996 34.187017 -2.150898
0.196049 15.594020 7.158004 1.923902 -3.364311 17.085139 0.000000 0.000000 0.000000 -21.458790 -17.648347 -24.073526 3.707642 11.760839 34.891192 0.984331 7.223208 -22.683440 0.014250 -0.770683 -2.118052 0.000000 0.000000 0.000000 17.579072 14.620187 -27.477518 -4.456891 -12.744699 38.420371 -1.667113 -3.317616 -25.772761 -0.013500 -0.750355 2.062173 -0.790991 -0.698637 -4.555401 -0.484402 -1.012456 -11.423726 -0.033992 -0.469678 -9.519720 9.826054 3.323067 -7.011320 -3.493824 4.100010 40.977155 -2.682242 2.789270 16.120309 0.000000 0.000000 0.000000 130.632388 -30.488088 45.203197 25.501382 -36.711661 8.588013 33.056355 17.493708 -15.465668 0.000000 0.000000 0.000000 -7.125000 0.000000 0.000000 5.276074 48.177527 -0.414590 0.000000 0.000000 0.000000 -137.129420 -38.099617 -61.504544 -20.009245 -30.653344 -5.536172 -35.910398 23.877513 4.082698 0.000000 0.000000 0.000000 7.125000 0.000000 0.000000 -7.687172 34.933122 -1.914574
0.175016 15.574848 7.332605 2.138260 -3.582581 15.666904 0.000000 0.000000 0.000000 -22.476302 -16.474344 -20.993679 3.427944 11.357541 33.495518 1.106089 6.973125 -23.537956 0.002450 -0.319982 -0.879200 0.000000 0.000000 0.000000 17.945789 14.529133 -24.278016 -4.238398 -12.471098 37.419509 -1.838390 -3.471198 -27.051415 -0.022067 -0.959609 2.637742 -0.859504 -0.520211 -5.704826 -0.677490 -0.780860 -12.160907 -0.219039 -0.360180 -9.692496 10.164131 3.214300 -5.455867 -3.890401 4.181059 38.908391 -2.871191 2.800252 14.713245 0.000000 0.000000 0.000000 129.007933 -26.143754 46.913436 22.404750 -33.431190 6.807604 32.225627 16.978560 -17.030102 0.000000 0.000000 0.000000 -7.125000 0.000000 0.000000 4.331287 49.834858 -0.517054 0.000000 0.000000 0.000000 -135.203902 -34.598030 -62.867509 -17.871477 -27.992127 -4.488824 -35.398651 23.866962 4.814153 0.000000 0.000000 0.000000 7.125000 0.000000 0.000000 -7.309035 35.798458 -1.663929
0.166413 15.517487 7.442761 2.356349 -3.869525 14.533943 0.000000 0.000000 0.000000 -23.293930 -15.596710 -19.015581 3.332421 11.214720 33.007518 1.271781 6.776705 -24.738241 0.000940 0.196007 0.538690 0.000000 0.000000 0.000000 18.118771 14.499427 -22.294777 -4.220810 -12.448580 37.337928 -2.039591 -3.387539 -28.362837 -0.034634 -1.201107 3.302269 -0.858315 -0.413338 -6.237698 -0.881051 -0.655738 -12.795659 -0.444448 -0.311077 -10.117315 10.557513 3.261539 -4.423344 -4.293454 4.403948 36.123938 -3.027777 2.858954 13.220748 0.000000 0.000000 0.000000 126.032535 -20.491115 46.890335 20.337806 -31.047016 5.704605 31.918362 15.819130 -19.397205 0.000000 0.000000 0.000000 -7.125000 0.000000 0.000000 3.755015 52.471065 -0.691224 0.000000 0.000000 0.000000 -131.534749 -29.880780 -62.226848 -16.570383 -26.287833 -3.895171 -35.122469 23.960170 5.740464 0.000000 0.000000 0.000000 7.125000 0.000000 0.000000 -7.129279 36.904005 -1.428756
0.162470 15.465257 7.511473 2.385838 -3.787312 13.676481 0.000000 0.000000 0.000000 -23.724961 -15.108554 -17.571781 3.274108 11.126167 32.706431 1.408039 6.707041 -25.734569 0.007270 0.549467 1.509906 0.000000 0.000000 0.000000 18.416021 14.324219 -20.928144 -4.240680 -12.473950 37.429859 -2.214184 -3.342650 -29.463344 -0.033449 -1.180757 3.246264 -0.783859 -0.410688 -6.628424 -0.892740 -0.654227 -13.219450 -0.501686 -0.319069 -10.383257 10.818155 3.342174 -3.601315 -4.904632 4.706421 32.670343 -3.216017 2.902763 11.627014 0.000000 0.000000 0.000000 121.716945 -13.986217 44.990523 18.681739 -29.021206 4.875526 31.604481 14.590047 -21.816387 0.000000 0.000000 0.000000 -7.125000 0.000000 0.000000 3.042728 55.128213 -0.757135 0.000000 0.000000 0.000000 -126.877179 -24.046011 -60.949238 -15.537605 -24.889670 -3.449063 -35.455203 22.853098 6.552289 0.000000 0.000000 0.000000 7.125000 0.000000 0.000000 -7.457969 37.909568 -1.310523
0.163300 15.418621 7.560967 2.134333 -3.557433 13.181381 0.000000 0.000000 0.000000 -23.726576 -15.174042 -16.522666 3.247692 11.085597 32.569121 1.548991 6.914282 -26.893771 0.022135 0.960873 2.641188 0.000000 0.000000 0.000000 18.890782 13.812197 -20.074634 -4.231698 -12.462518 37.388369 -2.428826 -2.593683 -30.472493 -0.024284 -1.005973 2.765263 -0.537953 -0.430087 -6.946188 -0.744862 -0.672928 -13.755410 -0.482123 -0.344173 -10.827380 10.927773 3.396597 -3.088769 -5.505928 4.933611 29.772261 -3.386799 2.914643 10.424375 0.000000 0.000000 0.000000 116.179344 -7.138357 42.298605 17.331245 -27.292322 4.238151 30.733831 14.795209 -23.769067 0.000000 0.000000 0.000000 -7.125000 0.000000 0.000000 1.659760 57.101282 -0.491914 0.000000 0.000000 0.000000 -121.427454 -17.629923 -59.253421 -14.583934 -23.563300 -3.057734 -36.470142 22.296064 8.295308 0.000000 0.000000 0.000000 7.125000 0.000000 0.000000 -8.443381 40.116508 -1.024674
0.163657 15.390771 7.608274 1.965147 -3.195123 13.046714 0.000000 0.000000 0.000000 -23.723466 -15.631385 -15.739662 3.191905 10.999412 32.277887 1.624861 7.430617 -27.751806 0.035504 1.216161 3.343782 0.000000 0.000000 0.000000 19.232030 13.510350 -19.768663 -4.256366 -12.493887 37.502481 -2.461121 -2.581359 -30.662326 -0.040329 -1.296044 3.563803 -0.417148 -0.579939 -7.351494 -0.625712 -0.867749 -14.244901 -0.419127 -0.446413 -11.171284 11.087608 3.520170 -2.876189 -6.101454 5.176533 26.707887 -3.553988 2.943023 9.296373 0.000000 0.000000 0.000000 110.062219 0.809830 38.941340 16.555039 -26.267446 3.888369 30.870108 14.235140 -25.032612 0.000000 0.000000 0.000000 -7.125000 0.000000 0.000000 1.489202 58.523276 -0.492576 0.000000 0.000000 0.000000 -114.988185 -10.270397 -56.455942 -13.911147 -22.607437 -2.793879 -36.863559 21.137400 9.680025 0.000000 0.000000 0.000000 7.125000 0.000000 0.000000 -8.876377 41.847979 -0.696294
0.161900 15.376399 7.651655 1.905784 -2.728610 12.981495 0.000000 0.000000 0.000000 -23.726589 -15.884020 -15.295116 3.166750 10.960200 32.145701 1.662353 7.495947 -28.051369 0.038600 1.268700 3.488601 0.000000 0.000000 0.000000 19.432780 13.242640 -19.503366 -4.262548 -12.501848 37.531292 -2.479096 -2.719940 -30.826340 -0.055652 -1.522279 4.187131 -0.525346 -0.830021 -7.559815 -0.464442 -1.193628 -14.646694 -0.177642 -0.584564 -11.526594 11.132415 3.729770 -3.182751 -6.698279 5.487770 24.220367 -3.697107 3.001605 8.525049 0.000000 0.000000 0.000000 103.103970 9.808475 34.612353 16.281030 -25.900223 3.767891 29.939964 14.191416 -25.482799 0.000000 0.000000 0.000000 -7.125000 0.000000 0.000000 0.280901 58.790578 -0.094716 0.000000 0.000000 0.000000 -107.996423 -1.697471 -51.721130 -13.412154 -21.888034 -2.604933 -36.059221 19.960459 11.103955 0.000000 0.000000 0.000000 7.125000 0.000000 0.000000 -8.200032 43.474576 -0.311061
